<svg width="46" height="32" viewBox="0 0 46 32" fill="none" xmlns="http://www.w3.org/2000/svg">
<path d="M45.2484 14.5895C45.216 17.0562 44.4139 19.2332 42.7744 21.081C41.3698 22.6645 39.6279 23.6808 37.559 24.123C36.6456 24.3181 35.723 24.3659 34.7923 24.2713C34.4693 24.2388 34.1483 24.19 33.8303 24.1291C33.7584 24.1148 33.726 24.1331 33.6885 24.1931C32.5776 25.9859 31.0008 27.1375 28.9461 27.5989C27.5516 27.9119 26.1976 27.7178 24.8852 27.173C24.8032 27.1395 24.7211 27.105 24.6411 27.0673C24.5652 27.0318 24.5257 27.045 24.4892 27.1293C24.1773 27.8479 23.7702 28.5085 23.2628 29.1062C22.1124 30.463 20.6612 31.3157 18.9346 31.7091C18.3432 31.8432 17.7437 31.9083 17.1401 31.8991C15.134 31.8697 13.3526 31.2273 11.8366 29.8908C10.9029 29.0675 10.2275 28.0613 9.75759 26.9108C9.6381 26.6171 9.68873 26.6598 9.39708 26.7086C7.95703 26.9505 6.55648 26.8295 5.20858 26.2461C4.19994 25.8091 3.34321 25.1617 2.63128 24.3222C1.64695 23.1615 1.02921 21.825 0.811478 20.3197C0.465138 17.9221 1.06971 15.8061 2.75686 14.0356C3.20548 13.565 3.71385 13.1676 4.26678 12.8271C4.42274 12.7306 4.4197 12.7316 4.34881 12.5588C4.03285 11.7864 3.83335 10.9855 3.75335 10.1531C3.58625 8.40494 3.9174 6.75132 4.74781 5.21255C5.93468 3.0162 7.72816 1.56077 10.1394 0.897088C10.7966 0.716175 11.468 0.632834 12.1506 0.614539C13.9886 0.564738 15.6666 1.06479 17.1968 2.07505C17.931 2.55985 18.571 3.15442 19.124 3.84148C19.2465 3.99394 19.2465 3.9919 19.3822 3.85978C20.5812 2.68893 21.998 1.92971 23.6517 1.67257C25.9657 1.31278 28.0417 1.89515 29.8626 3.37396C30.6119 3.98174 31.2175 4.71657 31.7036 5.551C31.7502 5.63028 31.7887 5.65162 31.8829 5.61097C32.773 5.23186 33.6976 4.97777 34.6627 4.8863C37.3352 4.6312 39.7039 5.38229 41.7647 7.09079C43.3759 8.42628 44.4291 10.1317 44.9496 12.1624C45.1532 12.9562 45.2565 13.7652 45.2474 14.5885L45.2484 14.5895ZM12.898 16.3702H12.8969C12.8969 15.9677 12.903 15.5662 12.8959 15.1637C12.8828 14.4655 12.4797 13.9949 11.7992 13.8791C11.4508 13.8191 11.1014 13.8323 10.7541 13.8882C10.4827 13.9319 10.2194 14.0061 9.96925 14.124C9.86393 14.1738 9.82241 14.2409 9.86899 14.3557C9.91051 14.4574 9.9419 14.5631 9.98039 14.6657C10.0391 14.8212 10.0492 14.8283 10.1991 14.7633C10.6012 14.5895 11.0164 14.5092 11.4559 14.5438C11.8761 14.5773 12.101 14.7968 12.1293 15.2207C12.1465 15.4798 12.1465 15.4778 11.8913 15.4443C11.5096 15.3945 11.1278 15.3762 10.746 15.4504C10.0695 15.5835 9.65633 15.9626 9.58341 16.5795C9.51455 17.1609 9.75051 17.6691 10.347 17.8703C10.6012 17.9567 10.8645 17.9913 11.1298 17.9994C11.6817 18.0146 12.2205 17.9221 12.7552 17.791C12.8615 17.7646 12.899 17.7087 12.898 17.603C12.8949 17.1924 12.8969 16.7818 12.8969 16.3712L12.898 16.3702ZM17.4996 16.1445C17.8966 16.1445 18.2926 16.1405 18.6895 16.1466C18.807 16.1486 18.8485 16.1018 18.8485 15.9921C18.8485 15.7553 18.8627 15.5184 18.8222 15.2827C18.7331 14.7704 18.5113 14.3456 18.0525 14.0722C17.7346 13.8821 17.3832 13.8536 17.0247 13.876C16.3816 13.9156 15.8905 14.2053 15.5897 14.7877C15.297 15.3558 15.2839 15.9606 15.3932 16.5714C15.5188 17.2737 15.9482 17.7138 16.6196 17.9171C17.0348 18.0431 17.4622 18.0268 17.8875 17.9882C18.1315 17.9658 18.3695 17.911 18.5954 17.8083C18.6916 17.7646 18.7179 17.7036 18.6804 17.6061C18.6348 17.4882 18.5903 17.3682 18.5548 17.2473C18.5224 17.1375 18.4647 17.1233 18.3655 17.1639C18.0029 17.3123 17.6222 17.3459 17.2353 17.3296C16.6479 17.3042 16.2429 16.9119 16.1922 16.3224C16.1781 16.1588 16.1882 16.1466 16.3492 16.1466C16.733 16.1466 17.1168 16.1466 17.5006 16.1466L17.4996 16.1445ZM38.1646 16.1445C38.5616 16.1445 38.9575 16.1415 39.3545 16.1466C39.4649 16.1476 39.5054 16.1049 39.5095 15.9992C39.5196 15.7105 39.5206 15.4239 39.4538 15.1404C39.3251 14.5915 39.0335 14.1758 38.4917 13.9695C38.2294 13.8699 37.956 13.8628 37.6805 13.875C36.999 13.9055 36.4056 14.3313 36.1747 14.9564C35.9843 15.4727 35.9468 16.0043 36.045 16.544C36.1828 17.3042 36.6375 17.7666 37.3828 17.9455C37.7575 18.035 38.1373 18.0238 38.516 17.9933C38.7722 17.9719 39.0244 17.9171 39.2603 17.8063C39.3505 17.7636 39.3768 17.7057 39.3424 17.6132C39.2968 17.4902 39.2492 17.3672 39.2117 17.2422C39.1803 17.1385 39.1246 17.1233 39.0315 17.1609C38.677 17.3052 38.3064 17.3408 37.9276 17.3306C37.3241 17.3144 36.9109 16.9302 36.8532 16.3285C36.837 16.1577 36.8461 16.1466 37.0152 16.1455C37.399 16.1455 37.7828 16.1455 38.1666 16.1455L38.1646 16.1445ZM24.9652 14.62C25.0786 14.62 25.193 14.6159 25.3065 14.621C25.3885 14.6251 25.433 14.5925 25.4492 14.5133C25.4746 14.3852 25.506 14.2571 25.5282 14.1281C25.5525 13.9848 25.5252 13.9533 25.3804 13.9522C25.1778 13.9502 24.9753 13.9512 24.7728 13.9522C24.7029 13.9522 24.6431 13.9461 24.6614 13.8486C24.7009 13.6402 24.7454 13.4339 24.8396 13.2418C24.9267 13.0639 25.0624 12.945 25.2589 12.9074C25.431 12.8739 25.6042 12.8891 25.7733 12.9288C25.8715 12.9521 25.911 12.9196 25.9394 12.8312C25.9829 12.694 26.0315 12.5588 26.0872 12.4257C26.1308 12.322 26.0923 12.2803 25.9951 12.2549C25.7723 12.196 25.5444 12.1797 25.3176 12.2C24.8275 12.2437 24.4274 12.4419 24.1773 12.8901C24.0163 13.1788 23.9353 13.4939 23.8816 13.816C23.8644 13.9187 23.8198 13.9533 23.7236 13.9502C23.5849 13.9461 23.4451 13.9502 23.3064 13.9482C23.2355 13.9472 23.196 13.9756 23.1828 14.0468C23.1555 14.2002 23.1241 14.3537 23.0968 14.5082C23.0816 14.5895 23.116 14.6241 23.2001 14.622C23.3307 14.618 23.4613 14.621 23.592 14.622C23.7348 14.622 23.7429 14.6342 23.7175 14.7765C23.5332 15.804 23.352 16.8326 23.1646 17.8601C23.1069 18.1752 23.0583 18.4944 22.8983 18.782C22.7737 19.0066 22.5904 19.1194 22.3312 19.1133C22.2036 19.1103 22.078 19.1001 21.9575 19.0605C21.8917 19.0391 21.8542 19.0584 21.8309 19.1225C21.7782 19.2648 21.7246 19.4081 21.6679 19.5493C21.6294 19.6459 21.6577 19.6998 21.757 19.7282C21.9626 19.7882 22.1732 19.7872 22.3838 19.7851C22.9965 19.779 23.4117 19.4863 23.6446 18.9212C23.8057 18.5309 23.8857 18.1203 23.9616 17.7077C24.1429 16.7178 24.3191 15.7268 24.4943 14.7359C24.5085 14.6535 24.5429 14.618 24.6259 14.62C24.7394 14.623 24.8538 14.62 24.9672 14.621L24.9652 14.62ZM27.5192 18.0095C28.4255 18.0095 29.0686 17.5197 29.2944 16.6476C29.4281 16.1313 29.4048 15.613 29.2468 15.1078C29.1051 14.6545 28.8286 14.2998 28.3992 14.0783C28.0701 13.9085 27.7157 13.8821 27.3531 13.8953C26.6594 13.9197 26.0346 14.3791 25.8158 15.0408C25.6751 15.4686 25.6406 15.9087 25.6953 16.3559C25.8118 17.3113 26.4751 18.0319 27.5192 18.0085V18.0095ZM7.5955 13.8669C7.36157 13.8587 7.12156 13.8882 6.88661 13.9715C6.43495 14.1331 6.15444 14.497 6.12304 14.934C6.07646 15.5794 6.38533 15.8772 6.78838 16.0713C7.01118 16.1781 7.25017 16.2299 7.4841 16.301C7.70183 16.3671 7.92361 16.424 8.10995 16.5653C8.274 16.6893 8.32565 16.8773 8.23856 17.0613C8.13526 17.2808 7.94386 17.3662 7.71601 17.3804C7.21675 17.4109 6.7661 17.2625 6.359 16.981C6.25672 16.9109 6.21723 16.9464 6.18583 17.0379C6.14532 17.1578 6.10785 17.2798 6.06937 17.4007C6.01266 17.5786 6.0157 17.5867 6.17874 17.6792C6.54838 17.8886 6.94636 17.9963 7.36866 18.0329C7.72816 18.0644 8.07754 18.039 8.40768 17.8876C8.80668 17.7036 9.03453 17.3906 9.07909 16.9454C9.12669 16.4718 8.94035 16.1252 8.53325 15.8884C8.33476 15.7725 8.11906 15.7014 7.90437 15.6252C7.65423 15.5367 7.396 15.4676 7.16308 15.3345C6.97168 15.2247 6.89066 15.0702 6.92712 14.8853C6.9656 14.6911 7.10434 14.5946 7.28359 14.5488C7.45372 14.5062 7.62588 14.5112 7.79905 14.5316C8.09982 14.5671 8.38236 14.6627 8.65376 14.7928C8.73781 14.8334 8.7844 14.8202 8.81174 14.7257C8.84111 14.624 8.88465 14.5275 8.91807 14.4269C8.97883 14.2449 8.96871 14.2175 8.7925 14.1311C8.41882 13.9472 8.02285 13.8587 7.59347 13.8669H7.5955ZM20.9772 13.8669C20.7088 13.8536 20.4455 13.8913 20.1924 14.0031C19.4987 14.309 19.2658 15.2135 19.7437 15.7664C19.924 15.9748 20.166 16.0866 20.4212 16.1689C20.6744 16.2502 20.9296 16.3244 21.1828 16.4047C21.3043 16.4433 21.4177 16.4972 21.517 16.5805C21.6253 16.673 21.6709 16.7879 21.6537 16.9302C21.6233 17.1873 21.3944 17.3672 21.0937 17.3814C20.5985 17.4038 20.1508 17.2646 19.7478 16.984C19.6425 16.9109 19.601 16.9414 19.5675 17.043C19.526 17.1721 19.4896 17.3022 19.4409 17.4282C19.3984 17.5369 19.4339 17.602 19.528 17.6589C19.766 17.8012 20.0222 17.8988 20.2896 17.9608C20.7605 18.0685 21.2324 18.098 21.6972 17.9262C22.238 17.727 22.5509 17.2015 22.4628 16.6385C22.399 16.236 22.1388 15.9911 21.7914 15.8213C21.4673 15.6638 21.1159 15.5825 20.7828 15.4504C20.6359 15.3924 20.4982 15.3233 20.3909 15.2034C20.3017 15.1028 20.2744 14.992 20.3149 14.8629C20.3797 14.6586 20.5772 14.5275 20.8405 14.5194C21.2587 14.5062 21.6506 14.6108 22.0243 14.7917C22.1114 14.8334 22.1631 14.8294 22.1924 14.7257C22.2228 14.62 22.2664 14.5183 22.3018 14.4147C22.3616 14.2358 22.3595 14.2267 22.1914 14.1392C21.8127 13.9431 21.4076 13.8608 20.9772 13.8679V13.8669ZM34.5959 18.0289C34.8906 18.0441 35.2035 17.9811 35.5113 17.8866C35.6805 17.8347 35.6926 17.8073 35.646 17.6396C35.6146 17.5298 35.5751 17.4221 35.5488 17.3113C35.5255 17.2117 35.4779 17.1934 35.3848 17.2249C35.1174 17.3154 34.842 17.3387 34.5614 17.3296C34.0632 17.3123 33.6784 17.0267 33.5366 16.549C33.4039 16.1018 33.4141 15.6526 33.5832 15.2166C33.7189 14.8639 33.9721 14.6362 34.3498 14.5702C34.6789 14.5122 35.006 14.5377 35.325 14.6383C35.4324 14.6718 35.482 14.6423 35.5134 14.5427C35.5498 14.4259 35.5883 14.309 35.6319 14.1941C35.6754 14.0823 35.6319 14.0346 35.5245 14.0041C35.1518 13.8984 34.7731 13.8567 34.3862 13.874C33.5974 13.9095 32.9462 14.4005 32.7001 15.1526C32.5573 15.5886 32.5492 16.0348 32.6282 16.482C32.7092 16.9414 32.8986 17.3459 33.2723 17.6416C33.651 17.9415 34.0936 18.038 34.5969 18.0289H34.5959ZM13.7456 15.1139C13.7456 15.9982 13.7466 16.8834 13.7446 17.7677C13.7446 17.8744 13.7658 17.9374 13.8904 17.9313C14.0372 17.9242 14.1851 17.9293 14.3329 17.9313C14.5476 17.9333 14.5486 17.9323 14.5486 17.7128C14.5486 16.2268 14.5486 14.7409 14.5486 13.255C14.5486 12.9836 14.5456 12.7133 14.5486 12.4419C14.5496 12.3403 14.5132 12.2956 14.4079 12.2986C14.2479 12.3037 14.0869 12.2996 13.9268 12.2996C13.7466 12.2996 13.7456 12.2996 13.7456 12.4846C13.7456 13.3607 13.7456 14.2368 13.7456 15.1129V15.1139ZM30.1016 15.9626C30.1016 16.5846 30.1036 17.2066 30.0995 17.8286C30.0995 17.9374 30.135 17.9811 30.2464 17.976C30.4104 17.9689 30.5755 17.9669 30.7395 17.976C30.8661 17.9831 30.9006 17.9293 30.8996 17.8124C30.8955 17.419 30.8945 17.0247 30.8996 16.6314C30.9046 16.2675 30.8793 15.9036 30.9228 15.5408C30.9816 15.0519 31.2398 14.745 31.6793 14.6596C31.813 14.6342 31.9497 14.6342 32.0824 14.6596C32.1776 14.6779 32.2252 14.6444 32.2566 14.561C32.3123 14.4147 32.37 14.2693 32.4277 14.124C32.4621 14.0376 32.4338 13.9827 32.3447 13.9644C31.8798 13.873 31.4383 13.9075 31.0454 14.2063C30.9978 14.2429 30.9583 14.3313 30.8965 14.2998C30.8398 14.2704 30.8742 14.183 30.8763 14.123C30.8813 14.0153 30.8439 13.9685 30.7304 13.9736C30.5836 13.9807 30.4357 13.9746 30.2879 13.9756C30.1076 13.9756 30.1005 13.9817 30.0995 14.1596C30.0995 14.7602 30.0995 15.3619 30.0995 15.9626H30.1016Z" fill="#0D0925"/>
<path d="M12.1009 16.6956C12.1009 16.8562 12.0999 17.0168 12.1009 17.1784C12.1009 17.2505 12.0797 17.3064 12.0037 17.3186C11.6462 17.3745 11.2867 17.4335 10.9252 17.3562C10.5525 17.2769 10.3854 17.0625 10.3905 16.6854C10.3945 16.3683 10.6001 16.1437 10.9373 16.0675C11.2948 15.9862 11.6493 16.0288 12.0047 16.0746C12.0868 16.0847 12.1009 16.1447 12.1009 16.2138C12.1009 16.3744 12.1009 16.535 12.1009 16.6966V16.6956Z" fill="#0D0925"/>
<path d="M17.123 15.5499C16.8577 15.5499 16.5923 15.5499 16.327 15.5499C16.2541 15.5499 16.1984 15.5387 16.2126 15.4462C16.2723 15.0437 16.5063 14.5935 17.0258 14.5427C17.5746 14.4898 17.921 14.7571 18.0243 15.3141C18.0668 15.5448 18.0658 15.5468 17.8319 15.5468C17.5959 15.5468 17.36 15.5468 17.124 15.5468V15.5489L17.123 15.5499Z" fill="#0D0925"/>
<path d="M37.786 15.5499C37.5207 15.5499 37.2554 15.5499 36.9901 15.5499C36.9212 15.5499 36.8675 15.5469 36.8696 15.4503C36.8777 15.0743 37.1825 14.6616 37.545 14.5702C38.0595 14.4401 38.5628 14.6291 38.6843 15.3223C38.6884 15.3477 38.6894 15.3731 38.6954 15.3975C38.7248 15.5072 38.6894 15.552 38.5709 15.5489C38.3096 15.5428 38.0483 15.5469 37.7871 15.5469V15.5489L37.786 15.5499Z" fill="#0D0925"/>
<path d="M28.534 15.9608C28.5361 16.2383 28.5037 16.5097 28.4044 16.7698C28.2545 17.1611 27.9659 17.3604 27.5527 17.3715C27.1578 17.3827 26.8732 17.2008 26.7102 16.84C26.5441 16.4751 26.5259 16.0879 26.5562 15.6966C26.5725 15.4892 26.6119 15.286 26.698 15.0949C26.8449 14.7686 27.0818 14.5684 27.4505 14.542C27.8646 14.5135 28.1735 14.669 28.3599 15.0471C28.5016 15.3347 28.531 15.6457 28.534 15.9608Z" fill="#0D0925"/>
</svg>
